<svg width="331" height="142" viewBox="0 0 331 142" fill="none" xmlns="http://www.w3.org/2000/svg">
<g clip-path="url(#clip0_31_2516)">
<path d="M1.59937 105.276V38.3564L20.7878 57.9427V105.276H1.59937Z" fill="white"/>
<path d="M93.5438 106.092V39.1724L74.3554 58.7586V106.092H93.5438Z" fill="white"/>
<path d="M47.9714 52.2296L16.7902 20.4021L2.39893 35.0917L47.9714 81.609L112.732 13.8733L99.1405 -0.000244141L47.9714 52.2296Z" fill="white"/>
<path d="M161.119 66.9197C163.439 67.2679 165.212 68.4169 166.441 70.3669C167.669 72.2472 168.283 74.8239 168.283 78.0969V88.334C168.283 94.6016 166.919 99.1281 164.189 101.914C161.46 104.699 157.025 106.092 150.885 106.092H112.508C111.485 106.092 110.973 105.57 110.973 104.525V34.5372C110.973 33.4926 111.485 32.9703 112.508 32.9703H150.885C156.002 32.9703 159.823 34.2586 162.347 36.8353C164.939 39.3423 166.236 43.1029 166.236 48.117V54.489C166.236 57.762 165.793 60.4085 164.905 62.428C164.018 64.4475 162.756 65.7707 161.119 66.3974V66.9197ZM120.695 41.8494V63.7859H148.327C151.124 63.7859 153.171 63.1244 154.467 61.8012C155.831 60.4084 156.514 58.2843 156.514 55.4291V49.6839C156.514 44.4609 154.024 41.8494 149.043 41.8494H120.695ZM158.561 81.0218C158.561 78.1666 157.878 76.0774 156.514 74.7542C155.217 73.3615 153.171 72.665 150.373 72.665H120.695V97.2131H150.373C153.171 97.2131 155.217 96.5515 156.514 95.2283C157.878 93.8356 158.561 91.7114 158.561 88.8563V81.0218ZM204.061 106.614C198.194 106.614 193.725 105.082 190.655 102.018C187.653 98.8844 186.152 94.3229 186.152 88.334V50.7285C186.152 44.7395 187.653 40.2128 190.655 37.1487C193.725 34.0149 198.194 32.448 204.061 32.448H228.622C234.489 32.448 238.925 34.0149 241.926 37.1487C244.996 40.2128 246.531 44.7395 246.531 50.7285V88.334C246.531 94.3229 244.996 98.8844 241.926 102.018C238.925 105.082 234.489 106.614 228.622 106.614H204.061ZM228.11 97.7354C230.907 97.7354 233.056 96.9694 234.558 95.4372C236.059 93.9051 236.809 91.7114 236.809 88.8563V50.2062C236.809 47.351 236.059 45.1573 234.558 43.6252C233.056 42.0931 230.907 41.3271 228.11 41.3271H204.573C201.776 41.3271 199.627 42.0931 198.125 43.6252C196.624 45.1573 195.874 47.351 195.874 50.2062V88.8563C195.874 91.7114 196.624 93.9051 198.125 95.4372C199.627 96.9694 201.776 97.7354 204.573 97.7354H228.11ZM282.813 106.614C276.673 106.614 272.239 105.222 269.509 102.436C266.78 99.6504 265.416 95.1239 265.416 88.8563V84.6779C265.416 83.6333 265.928 83.111 266.951 83.111H273.603C274.626 83.111 275.138 83.6333 275.138 84.6779V89.3786C275.138 92.2337 275.786 94.3579 277.082 95.7506C278.446 97.0738 280.528 97.7354 283.325 97.7354H303.793C306.589 97.7354 308.636 97.0738 309.933 95.7506C311.297 94.3579 311.98 92.2337 311.98 89.3786V82.5887C311.98 79.7335 311.297 77.6443 309.933 76.3211C308.636 74.9284 306.589 74.2319 303.793 74.2319H283.325C277.185 74.2319 272.751 72.8392 270.021 70.0535C267.292 67.2679 265.928 62.7413 265.928 56.4737V50.2062C265.928 43.9386 267.292 39.412 270.021 36.6264C272.751 33.8407 277.185 32.448 283.325 32.448H303.793C309.933 32.448 314.367 33.8407 317.097 36.6264C319.826 39.412 321.19 43.9386 321.19 50.2062V54.3845C321.19 55.4291 320.679 55.9514 319.655 55.9514H313.003C311.98 55.9514 311.468 55.4291 311.468 54.3845V49.6839C311.468 46.8287 310.785 44.7395 309.421 43.4163C308.125 42.0235 306.078 41.3271 303.281 41.3271H283.837C281.04 41.3271 278.958 42.0235 277.594 43.4163C276.297 44.7395 275.65 46.8287 275.65 49.6839V56.996C275.65 59.8512 276.297 61.9753 277.594 63.3681C278.958 64.6913 281.04 65.3528 283.837 65.3528H304.304C310.445 65.3528 314.879 66.7456 317.608 69.5312C320.338 72.3169 321.702 76.8434 321.702 83.111V88.8563C321.702 95.1239 320.338 99.6504 317.608 102.436C314.879 105.222 310.445 106.614 304.304 106.614H282.813Z" fill="white"/>
<path d="M2.02296 138.735C1.83908 138.735 1.74713 138.641 1.74713 138.454V125.878C1.74713 125.69 1.83908 125.596 2.02296 125.596H3.34696C3.44503 125.596 3.52473 125.621 3.58602 125.671C3.64731 125.709 3.71474 125.778 3.7883 125.878L8.18324 132.184H8.29358L12.6517 125.878C12.7253 125.778 12.7927 125.709 12.854 125.671C12.9153 125.621 12.995 125.596 13.0931 125.596H14.4171C14.601 125.596 14.6929 125.69 14.6929 125.878V138.454C14.6929 138.641 14.601 138.735 14.4171 138.735H13.2218C13.0379 138.735 12.946 138.641 12.946 138.454V128.487H12.854L9.10269 133.892C8.95558 134.08 8.79008 134.174 8.60619 134.174H7.83385C7.64997 134.174 7.48446 134.08 7.33735 133.892L3.58602 128.487H3.49408V138.454C3.49408 138.641 3.40213 138.735 3.21824 138.735H2.02296ZM22.3161 138.829C21.2617 138.829 20.4589 138.554 19.9072 138.003C19.3677 137.44 19.0981 136.62 19.0981 135.544V125.878C19.0981 125.69 19.19 125.596 19.3739 125.596H20.5692C20.7531 125.596 20.845 125.69 20.845 125.878V135.544C20.845 136.057 20.9798 136.451 21.2496 136.727C21.5192 137.002 21.9054 137.14 22.4081 137.14H25.9939C26.4965 137.14 26.8827 137.002 27.1524 136.727C27.422 136.451 27.557 136.057 27.557 135.544V125.878C27.557 125.69 27.6489 125.596 27.8328 125.596H29.0281C29.212 125.596 29.3039 125.69 29.3039 125.878V135.544C29.3039 136.62 29.0281 137.44 28.4764 138.003C27.9369 138.554 27.1401 138.829 26.0859 138.829H22.3161ZM34.0871 138.735C33.9032 138.735 33.8113 138.641 33.8113 138.454V125.878C33.8113 125.69 33.9032 125.596 34.0871 125.596H35.2824C35.4663 125.596 35.5582 125.69 35.5582 125.878V137.046H42.1782C42.3621 137.046 42.4541 137.14 42.4541 137.327V138.454C42.4541 138.641 42.3621 138.735 42.1782 138.735H34.0871ZM53.0233 125.596C53.2072 125.596 53.2992 125.69 53.2992 125.878V127.004C53.2992 127.192 53.2072 127.285 53.0233 127.285H48.7939V138.454C48.7939 138.641 48.702 138.735 48.5181 138.735H47.3228C47.1389 138.735 47.047 138.641 47.047 138.454V127.285H42.8175C42.6336 127.285 42.5417 127.192 42.5417 127.004V125.878C42.5417 125.69 42.6336 125.596 42.8175 125.596H53.0233ZM60.1993 127.192V137.14H62.8657C63.0496 137.14 63.1416 137.234 63.1416 137.421V138.454C63.1416 138.641 63.0496 138.735 62.8657 138.735H55.786C55.6021 138.735 55.5102 138.641 55.5102 138.454V137.421C55.5102 137.234 55.6021 137.14 55.786 137.14H58.4524V127.192H55.786C55.6021 127.192 55.5102 127.098 55.5102 126.91V125.878C55.5102 125.69 55.6021 125.596 55.786 125.596H62.8657C63.0496 125.596 63.1416 125.69 63.1416 125.878V126.91C63.1416 127.098 63.0496 127.192 62.8657 127.192H60.1993ZM75.929 131.696C76.3459 131.759 76.6646 131.965 76.8853 132.316C77.1059 132.654 77.2163 133.117 77.2163 133.705V135.544C77.2163 136.67 76.9711 137.484 76.4807 137.984C75.9904 138.485 75.1935 138.735 74.0901 138.735H67.1943C67.0104 138.735 66.9185 138.641 66.9185 138.454V125.878C66.9185 125.69 67.0104 125.596 67.1943 125.596H74.0901C75.0096 125.596 75.6962 125.827 76.1497 126.291C76.6157 126.741 76.8485 127.417 76.8485 128.318V129.463C76.8485 130.051 76.7688 130.526 76.6094 130.889C76.4502 131.252 76.2233 131.49 75.929 131.602V131.696ZM68.6654 127.192V131.133H73.6304C74.1332 131.133 74.5009 131.014 74.7337 130.777C74.979 130.526 75.1015 130.145 75.1015 129.632V128.599C75.1015 127.661 74.6541 127.192 73.7591 127.192H68.6654ZM75.4693 134.23C75.4693 133.717 75.3468 133.342 75.1015 133.104C74.8687 132.854 74.5009 132.729 73.9982 132.729H68.6654V137.14H73.9982C74.5009 137.14 74.8687 137.021 75.1015 136.783C75.3468 136.533 75.4693 136.151 75.4693 135.638V134.23ZM91.0007 138.285C91.0743 138.36 91.1111 138.435 91.1111 138.51C91.1111 138.572 91.0866 138.629 91.0375 138.679C90.9886 138.716 90.9211 138.735 90.8352 138.735H89.4744C89.3641 138.735 89.2722 138.723 89.1986 138.698C89.1251 138.66 89.0515 138.598 88.9779 138.51L83.5716 132.447H82.9096V138.454C82.9096 138.641 82.8177 138.735 82.6338 138.735H81.4385C81.2546 138.735 81.1627 138.641 81.1627 138.454V125.878C81.1627 125.69 81.2546 125.596 81.4385 125.596H87.9666C89.0699 125.596 89.8668 125.846 90.3571 126.347C90.8475 126.847 91.0927 127.661 91.0927 128.787V129.256C91.0927 130.382 90.8475 131.196 90.3571 131.696C89.8668 132.197 89.0699 132.447 87.9666 132.447H85.9438V132.579L91.0007 138.285ZM82.9096 127.192V130.852H87.8746C88.3773 130.852 88.7451 130.733 88.9779 130.495C89.2232 130.245 89.3457 129.863 89.3457 129.35V128.693C89.3457 128.18 89.2232 127.805 88.9779 127.567C88.7451 127.317 88.3773 127.192 87.8746 127.192H82.9096ZM104.929 138.322C104.953 138.422 104.965 138.485 104.965 138.51C104.965 138.66 104.88 138.735 104.708 138.735H103.549C103.329 138.735 103.194 138.641 103.145 138.454L102.409 135.544H96.1571L95.4216 138.454C95.3725 138.641 95.2377 138.735 95.017 138.735H93.8585C93.6869 138.735 93.6011 138.66 93.6011 138.51C93.6011 138.485 93.6134 138.422 93.6378 138.322L96.9662 125.878C97.0275 125.69 97.1624 125.596 97.3708 125.596H101.196C101.416 125.596 101.551 125.69 101.6 125.878L104.929 138.322ZM98.1983 127.379L97.0214 132.128L96.5617 133.949H102.005L101.545 132.128L100.368 127.379H98.1983ZM108.56 138.735C108.376 138.735 108.284 138.641 108.284 138.454V125.878C108.284 125.69 108.376 125.596 108.56 125.596H109.884C109.994 125.596 110.08 125.615 110.141 125.652C110.215 125.69 110.282 125.759 110.344 125.859L117.037 135.845H117.148V125.878C117.148 125.69 117.24 125.596 117.423 125.596H118.582C118.766 125.596 118.858 125.69 118.858 125.878V138.454C118.858 138.641 118.766 138.735 118.582 138.735H117.258C117.148 138.735 117.056 138.716 116.982 138.679C116.921 138.641 116.859 138.572 116.798 138.472L110.105 128.487H109.994V138.454C109.994 138.641 109.902 138.735 109.719 138.735H108.56ZM126.391 138.829C125.336 138.829 124.533 138.554 123.982 138.003C123.442 137.44 123.173 136.62 123.173 135.544V128.787C123.173 127.711 123.442 126.897 123.982 126.347C124.533 125.784 125.336 125.502 126.391 125.502H130.344C131.399 125.502 132.196 125.784 132.735 126.347C133.287 126.897 133.562 127.711 133.562 128.787V129.444C133.562 129.632 133.47 129.725 133.287 129.725H132.091C131.907 129.725 131.815 129.632 131.815 129.444V128.693C131.815 128.18 131.681 127.786 131.411 127.511C131.141 127.235 130.755 127.098 130.252 127.098H126.483C125.98 127.098 125.594 127.235 125.324 127.511C125.055 127.786 124.92 128.18 124.92 128.693V135.638C124.92 136.151 125.055 136.545 125.324 136.821C125.594 137.096 125.98 137.234 126.483 137.234H130.252C130.755 137.234 131.141 137.096 131.411 136.821C131.681 136.545 131.815 136.151 131.815 135.638V134.887C131.815 134.7 131.907 134.606 132.091 134.606H133.287C133.47 134.606 133.562 134.7 133.562 134.887V135.544C133.562 136.62 133.287 137.44 132.735 138.003C132.196 138.554 131.399 138.829 130.344 138.829H126.391ZM147.82 125.596C148.004 125.596 148.096 125.69 148.096 125.878V138.454C148.096 138.641 148.004 138.735 147.82 138.735H146.625C146.441 138.735 146.349 138.641 146.349 138.454V132.916H139.545V138.454C139.545 138.641 139.453 138.735 139.269 138.735H138.074C137.89 138.735 137.798 138.641 137.798 138.454V125.878C137.798 125.69 137.89 125.596 138.074 125.596H139.269C139.453 125.596 139.545 125.69 139.545 125.878V131.227H146.349V125.878C146.349 125.69 146.441 125.596 146.625 125.596H147.82ZM160.773 138.829C159.719 138.829 158.916 138.554 158.364 138.003C157.825 137.44 157.555 136.62 157.555 135.544V128.787C157.555 127.711 157.825 126.897 158.364 126.347C158.916 125.784 159.719 125.502 160.773 125.502H165.187C166.241 125.502 167.037 125.784 167.577 126.347C168.129 126.897 168.404 127.711 168.404 128.787V135.544C168.404 136.62 168.129 137.44 167.577 138.003C167.037 138.554 166.241 138.829 165.187 138.829H160.773ZM165.094 137.234C165.598 137.234 165.983 137.096 166.253 136.821C166.522 136.545 166.658 136.151 166.658 135.638V128.693C166.658 128.18 166.522 127.786 166.253 127.511C165.983 127.235 165.598 127.098 165.094 127.098H160.865C160.362 127.098 159.976 127.235 159.706 127.511C159.437 127.786 159.302 128.18 159.302 128.693V135.638C159.302 136.151 159.437 136.545 159.706 136.821C159.976 137.096 160.362 137.234 160.865 137.234H165.094ZM173.084 138.735C172.901 138.735 172.809 138.641 172.809 138.454V125.878C172.809 125.69 172.901 125.596 173.084 125.596H174.28C174.464 125.596 174.556 125.69 174.556 125.878V137.046H181.176C181.359 137.046 181.452 137.14 181.452 137.327V138.454C181.452 138.641 181.359 138.735 181.176 138.735H173.084ZM188.437 127.192V137.14H191.104C191.288 137.14 191.379 137.234 191.379 137.421V138.454C191.379 138.641 191.288 138.735 191.104 138.735H184.023C183.84 138.735 183.748 138.641 183.748 138.454V137.421C183.748 137.234 183.84 137.14 184.023 137.14H186.691V127.192H184.023C183.84 127.192 183.748 127.098 183.748 126.91V125.878C183.748 125.69 183.84 125.596 184.023 125.596H191.104C191.288 125.596 191.379 125.69 191.379 125.878V126.91C191.379 127.098 191.288 127.192 191.104 127.192H188.437ZM195.34 138.735C195.156 138.735 195.063 138.641 195.063 138.454V125.878C195.063 125.69 195.156 125.596 195.34 125.596H196.664C196.774 125.596 196.86 125.615 196.921 125.652C196.995 125.69 197.062 125.759 197.123 125.859L203.816 135.845H203.927V125.878C203.927 125.69 204.019 125.596 204.203 125.596H205.361C205.545 125.596 205.638 125.69 205.638 125.878V138.454C205.638 138.641 205.545 138.735 205.361 138.735H204.037C203.927 138.735 203.835 138.716 203.762 138.679C203.701 138.641 203.639 138.572 203.578 138.472L196.884 128.487H196.774V138.454C196.774 138.641 196.681 138.735 196.497 138.735H195.34ZM218.871 137.14C219.055 137.14 219.146 137.234 219.146 137.421V138.454C219.146 138.641 219.055 138.735 218.871 138.735H210.412C210.228 138.735 210.136 138.641 210.136 138.454V125.878C210.136 125.69 210.228 125.596 210.412 125.596H218.687C218.871 125.596 218.962 125.69 218.962 125.878V126.91C218.962 127.098 218.871 127.192 218.687 127.192H211.883V131.321H218.136C218.319 131.321 218.411 131.415 218.411 131.602V132.635C218.411 132.823 218.319 132.916 218.136 132.916H211.883V137.14H218.871ZM230.822 138.829C229.719 138.829 228.921 138.579 228.432 138.078C227.941 137.578 227.696 136.764 227.696 135.638V134.887C227.696 134.7 227.787 134.606 227.971 134.606H229.167C229.351 134.606 229.442 134.7 229.442 134.887V135.732C229.442 136.245 229.559 136.627 229.793 136.877C230.037 137.115 230.411 137.234 230.913 137.234H234.591C235.093 137.234 235.461 137.115 235.695 136.877C235.939 136.627 236.062 136.245 236.062 135.732V134.512C236.062 133.999 235.939 133.623 235.695 133.386C235.461 133.135 235.093 133.01 234.591 133.01H230.913C229.81 133.01 229.014 132.76 228.523 132.259C228.032 131.759 227.787 130.946 227.787 129.819V128.693C227.787 127.567 228.032 126.754 228.523 126.253C229.014 125.752 229.81 125.502 230.913 125.502H234.591C235.695 125.502 236.491 125.752 236.982 126.253C237.473 126.754 237.717 127.567 237.717 128.693V129.444C237.717 129.632 237.626 129.725 237.442 129.725H236.246C236.062 129.725 235.971 129.632 235.971 129.444V128.599C235.971 128.086 235.848 127.711 235.603 127.473C235.37 127.223 235.002 127.098 234.5 127.098H231.006C230.503 127.098 230.128 127.223 229.884 127.473C229.65 127.711 229.535 128.086 229.535 128.599V129.913C229.535 130.426 229.65 130.808 229.884 131.058C230.128 131.296 230.503 131.415 231.006 131.415H234.684C235.787 131.415 236.584 131.665 237.075 132.166C237.564 132.666 237.81 133.479 237.81 134.606V135.638C237.81 136.764 237.564 137.578 237.075 138.078C236.584 138.579 235.787 138.829 234.684 138.829H230.822ZM250.506 137.14C250.69 137.14 250.781 137.234 250.781 137.421V138.454C250.781 138.641 250.69 138.735 250.506 138.735H242.048C241.864 138.735 241.771 138.641 241.771 138.454V125.878C241.771 125.69 241.864 125.596 242.048 125.596H250.323C250.506 125.596 250.598 125.69 250.598 125.878V126.91C250.598 127.098 250.506 127.192 250.323 127.192H243.519V131.321H249.771C249.955 131.321 250.046 131.415 250.046 131.602V132.635C250.046 132.823 249.955 132.916 249.771 132.916H243.519V137.14H250.506ZM264.578 138.285C264.651 138.36 264.688 138.435 264.688 138.51C264.688 138.572 264.664 138.629 264.615 138.679C264.567 138.716 264.498 138.735 264.413 138.735H263.052C262.942 138.735 262.849 138.723 262.776 138.698C262.702 138.66 262.629 138.598 262.555 138.51L257.149 132.447H256.487V138.454C256.487 138.641 256.396 138.735 256.212 138.735H255.016C254.832 138.735 254.741 138.641 254.741 138.454V125.878C254.741 125.69 254.832 125.596 255.016 125.596H261.545C262.648 125.596 263.444 125.846 263.935 126.347C264.424 126.847 264.671 127.661 264.671 128.787V129.256C264.671 130.382 264.424 131.196 263.935 131.696C263.444 132.197 262.648 132.447 261.545 132.447H259.522V132.579L264.578 138.285ZM256.487 127.192V130.852H261.452C261.956 130.852 262.323 130.733 262.555 130.495C262.801 130.245 262.923 129.863 262.923 129.35V128.693C262.923 128.18 262.801 127.805 262.555 127.567C262.323 127.317 261.956 127.192 261.452 127.192H256.487ZM271.956 138.735C271.759 138.735 271.625 138.641 271.551 138.454L266.844 125.971C266.818 125.896 266.807 125.846 266.807 125.821C266.807 125.671 266.917 125.596 267.138 125.596H268.241C268.352 125.596 268.436 125.621 268.499 125.671C268.56 125.709 268.609 125.778 268.646 125.878L271.331 133.104L272.581 136.483H272.672L273.923 133.104L276.607 125.878C276.644 125.778 276.694 125.709 276.755 125.671C276.815 125.621 276.902 125.596 277.012 125.596H278.171C278.342 125.596 278.429 125.671 278.429 125.821C278.429 125.846 278.416 125.909 278.392 126.009L273.702 138.454C273.628 138.641 273.494 138.735 273.297 138.735H271.956ZM285.133 127.192V137.14H287.799C287.983 137.14 288.076 137.234 288.076 137.421V138.454C288.076 138.641 287.983 138.735 287.799 138.735H280.72C280.536 138.735 280.444 138.641 280.444 138.454V137.421C280.444 137.234 280.536 137.14 280.72 137.14H283.386V127.192H280.72C280.536 127.192 280.444 127.098 280.444 126.91V125.878C280.444 125.69 280.536 125.596 280.72 125.596H287.799C287.983 125.596 288.076 125.69 288.076 125.878V126.91C288.076 127.098 287.983 127.192 287.799 127.192H285.133ZM294.526 138.829C293.472 138.829 292.67 138.554 292.118 138.003C291.579 137.44 291.309 136.62 291.309 135.544V128.787C291.309 127.711 291.579 126.897 292.118 126.347C292.67 125.784 293.472 125.502 294.526 125.502H298.481C299.534 125.502 300.332 125.784 300.871 126.347C301.423 126.897 301.698 127.711 301.698 128.787V129.444C301.698 129.632 301.607 129.725 301.423 129.725H300.227C300.043 129.725 299.952 129.632 299.952 129.444V128.693C299.952 128.18 299.817 127.786 299.547 127.511C299.277 127.235 298.892 127.098 298.388 127.098H294.619C294.117 127.098 293.73 127.235 293.46 127.511C293.191 127.786 293.055 128.18 293.055 128.693V135.638C293.055 136.151 293.191 136.545 293.46 136.821C293.73 137.096 294.117 137.234 294.619 137.234H298.388C298.892 137.234 299.277 137.096 299.547 136.821C299.817 136.545 299.952 136.151 299.952 135.638V134.887C299.952 134.7 300.043 134.606 300.227 134.606H301.423C301.607 134.606 301.698 134.7 301.698 134.887V135.544C301.698 136.62 301.423 137.44 300.871 138.003C300.332 138.554 299.534 138.829 298.481 138.829H294.526ZM314.669 137.14C314.853 137.14 314.946 137.234 314.946 137.421V138.454C314.946 138.641 314.853 138.735 314.669 138.735H306.21C306.026 138.735 305.935 138.641 305.935 138.454V125.878C305.935 125.69 306.026 125.596 306.21 125.596H314.485C314.669 125.596 314.762 125.69 314.762 125.878V126.91C314.762 127.098 314.669 127.192 314.485 127.192H307.681V131.321H313.934C314.118 131.321 314.21 131.415 314.21 131.602V132.635C314.21 132.823 314.118 132.916 313.934 132.916H307.681V137.14H314.669ZM321.39 138.829C320.287 138.829 319.49 138.579 318.999 138.078C318.51 137.578 318.264 136.764 318.264 135.638V134.887C318.264 134.7 318.357 134.606 318.54 134.606H319.735C319.919 134.606 320.012 134.7 320.012 134.887V135.732C320.012 136.245 320.128 136.627 320.36 136.877C320.606 137.115 320.981 137.234 321.483 137.234H325.161C325.663 137.234 326.03 137.115 326.264 136.877C326.508 136.627 326.632 136.245 326.632 135.732V134.512C326.632 133.999 326.508 133.623 326.264 133.386C326.03 133.135 325.663 133.01 325.161 133.01H321.483C320.379 133.01 319.583 132.76 319.092 132.259C318.601 131.759 318.357 130.946 318.357 129.819V128.693C318.357 127.567 318.601 126.754 319.092 126.253C319.583 125.752 320.379 125.502 321.483 125.502H325.161C326.264 125.502 327.06 125.752 327.551 126.253C328.042 126.754 328.287 127.567 328.287 128.693V129.444C328.287 129.632 328.194 129.725 328.01 129.725H326.816C326.632 129.725 326.539 129.632 326.539 129.444V128.599C326.539 128.086 326.417 127.711 326.171 127.473C325.939 127.223 325.571 127.098 325.068 127.098H321.574C321.072 127.098 320.698 127.223 320.453 127.473C320.22 127.711 320.103 128.086 320.103 128.599V129.913C320.103 130.426 320.22 130.808 320.453 131.058C320.698 131.296 321.072 131.415 321.574 131.415H325.252C326.355 131.415 327.153 131.665 327.642 132.166C328.133 132.666 328.378 133.479 328.378 134.606V135.638C328.378 136.764 328.133 137.578 327.642 138.078C327.153 138.579 326.355 138.829 325.252 138.829H321.39Z" fill="white"/>
</g>
<defs>
<clipPath id="clip0_31_2516">
<rect width="331" height="142" fill="white"/>
</clipPath>
</defs>
</svg>
